<?xml version="1.0" standalone="no"?>
<!DOCTYPE svg PUBLIC "-//W3C//DTD SVG 20010904//EN"
 "http://www.w3.org/TR/2001/REC-SVG-20010904/DTD/svg10.dtd">
<svg version="1.0" xmlns="http://www.w3.org/2000/svg"
 width="1698.000000pt" height="1698.000000pt" viewBox="0 0 1698.000000 1698.000000"
 preserveAspectRatio="xMidYMid meet">
<metadata>
Created by potrace 1.14, written by Peter Selinger 2001-2017
</metadata>
<g transform="translate(0.000000,1698.000000) scale(0.100000,-0.100000)"
fill="#000000" stroke="none">
<path d="M10 8487 l0 -4772 1213 0 1212 0 1 4773 1 4772 -1214 0 -1213 0 0
-4773z"/>
<path d="M2870 9921 c0 -2666 3 -3341 13 -3342 17 -2 2085 1 5527 6 1642 2
3560 5 4263 5 1295 1 1285 1 1502 35 33 6 118 24 225 50 284 68 639 215 890
367 36 21 74 44 85 51 165 99 414 298 585 467 332 328 582 705 758 1140 42
103 114 320 127 380 2 8 12 53 23 100 12 47 23 101 26 120 3 19 12 76 20 125
8 50 18 110 21 135 10 78 14 551 5 630 -5 41 -12 98 -15 125 -55 481 -255
1009 -543 1435 -470 695 -1181 1195 -1987 1399 -44 11 -91 22 -105 25 -138 26
-192 36 -235 42 -27 3 -59 8 -70 10 -27 6 -3174 17 -8437 30 l-2678 6 0 -3341z"/>
<path d="M2870 4930 l0 -1215 7023 0 7022 0 0 1215 0 1215 -7022 0 -7023 0 0
-1215z"/>
</g>
</svg>
